<svg width="24" height="24" viewBox="0 0 24 24" fill="none" xmlns="http://www.w3.org/2000/svg">
<path d="M2.15735 17.031C2.18152 18.945 3.31696 20.72 5.36224 22.0349C7.33356 23.3022 9.94061 24 12.7031 24C15.4656 24 18.0727 23.3022 20.044 22.0349C22.1115 20.7057 23.25 18.9066 23.25 16.9688C23.25 15.2571 22.3385 13.3777 20.044 11.9026C18.5814 10.9623 16.7688 10.3361 14.8024 10.0752C14.7142 7.51813 14.0288 5.11487 12.8496 3.25653C11.5172 1.15649 9.71722 0 7.78125 0C7.771 0 7.76074 0.000549319 7.75049 0.000549319C7.72687 -0.000183105 7.70325 0.000183105 7.67926 0.00183105C5.78229 0.041748 4.02191 1.19348 2.71289 3.25653C1.44708 5.25128 0.75 7.87372 0.75 10.6406C0.75 12.938 1.24786 15.1793 2.15662 16.9971C2.15643 17.0085 2.15717 17.0198 2.15735 17.031ZM19.2836 20.8521C17.5362 21.9752 15.1994 22.5938 12.7031 22.5938C10.2068 22.5938 7.87006 21.9752 6.12268 20.8521C4.66901 19.9175 3.79083 18.7366 3.6015 17.4829C6.33087 16.5187 9.38031 16.611 12.0474 17.7541C15.1163 19.0693 18.5645 19.1528 21.6872 17.9965C21.3622 19.0574 20.5367 20.0462 19.2836 20.8521ZM21.8036 16.4471L21.3378 16.6263C18.4993 17.718 15.3968 17.6596 12.6015 16.4615C11.0116 15.7802 9.32849 15.4265 7.59906 15.4102C6.27246 15.3979 4.96948 15.5852 3.71136 15.9666C4.03088 14.8962 4.85944 13.8977 6.12286 13.0856C8.01782 11.8672 10.4339 11.3438 12.7031 11.3438C15.1994 11.3438 17.5362 11.9623 19.2836 13.0854C20.7343 14.0182 21.6121 15.1963 21.8036 16.4471ZM11.6622 4.00983C12.6832 5.61896 13.2876 7.70801 13.3905 9.95233C13.1625 9.94281 12.9335 9.9375 12.7031 9.9375C11.3864 9.9375 10.1054 10.0964 8.91138 10.3995C9.88513 7.55493 9.85492 4.39471 8.8103 1.56665C9.867 1.89825 10.8547 2.73706 11.6622 4.00983ZM3.90033 4.00983C4.83618 2.5351 6.01337 1.64246 7.25995 1.44727L7.43884 1.91217C8.52686 4.74078 8.4668 7.95941 7.27405 10.7422C7.24237 10.816 7.21161 10.8906 7.1814 10.9651C6.53119 11.2299 5.92108 11.5433 5.36224 11.9026C4.1554 12.6786 3.2655 13.6148 2.7334 14.6453C2.35657 13.4055 2.15625 12.0374 2.15625 10.6406C2.15625 8.13721 2.7757 5.78229 3.90033 4.00983Z" fill="black"/>
</svg>
